<?xml version="1.0" encoding="utf-8"?>
<!-- Generator: Adobe Illustrator 23.0.3, SVG Export Plug-In . SVG Version: 6.00 Build 0)  -->
<svg version="1.1" id="Layer_1" xmlns="http://www.w3.org/2000/svg" xmlns:xlink="http://www.w3.org/1999/xlink" x="0px" y="0px"
	 viewBox="0 0 512 512" style="enable-background:new 0 0 512 512;" xml:space="preserve">
<style type="text/css">
	.st0{opacity:0.8;fill:#FFFFFF;}
	.st1{fill:url(#SVGID_1_);}
	.st2{fill:#FFFFFF;}
	.st3{fill:#C95F17;}
	.st4{fill:#DF6664;}
	.st5{fill:#FFF200;}
	.st6{fill:#FF9100;}
	.st7{fill:none;stroke:#C95F17;stroke-width:6;stroke-linecap:round;stroke-linejoin:round;stroke-miterlimit:10;}
	.st8{opacity:0.35;fill:#FF8A33;}
	.st9{fill:none;stroke:#FFFFFF;stroke-width:8;stroke-linecap:round;stroke-linejoin:round;stroke-miterlimit:10;}
	.st10{opacity:0.5;}
	.st11{opacity:0.3;}
	.st12{fill:#FF8A33;}
	.st13{opacity:0.35;}
	.st14{fill:url(#SVGID_2_);}
	.st15{fill:url(#SVGID_3_);}
	.st16{clip-path:url(#SVGID_5_);}
	.st17{fill:url(#SVGID_6_);}
	.st18{clip-path:url(#SVGID_8_);}
	.st19{fill:url(#SVGID_9_);}
	.st20{fill:url(#SVGID_10_);}
	.st21{clip-path:url(#SVGID_12_);}
	.st22{fill:url(#SVGID_13_);}
	.st23{clip-path:url(#SVGID_15_);}
	.st24{fill:url(#SVGID_16_);}
</style>
<g>
	<defs>
		<circle id="SVGID_11_" cx="253.5" cy="252" r="246"/>
	</defs>
	<clipPath id="SVGID_1_">
		<use xlink:href="#SVGID_11_"  style="overflow:visible;"/>
	</clipPath>
	<g style="clip-path:url(#SVGID_1_);">
		
			<radialGradient id="SVGID_2_" cx="228.8652" cy="180.6036" r="194.5524" fx="221.3495" fy="163.0245" gradientTransform="matrix(0.2998 -1.2552 1.2968 0.3192 -21.6862 452.1066)" gradientUnits="userSpaceOnUse">
			<stop  offset="0" style="stop-color:#FCEE6A"/>
			<stop  offset="0.8799" style="stop-color:#FFF200"/>
		</radialGradient>
		<path class="st14" d="M438.41,348.05c-9.1-4.2-11.56-16.53-6.87-25.5c14.1-26.96,22.07-57.75,22.06-90.94
			C453.59,117.95,377.14,38,257.35,38C133.76,38,43.66,118,43.67,231.67c0,38.7,10.46,74.12,28.71,104.02
			c5.34,8.75,4.05,22.04-5.28,26.06C-1.25,391.23-46.08,471.78-46.08,542.11C-46.08,679.52,88.28,702,257.35,702
			s308.83-22.48,308.83-159.89C566.18,464.47,523.55,387.37,438.41,348.05z"/>
		<g>
			<g>
				
					<ellipse transform="matrix(0.2982 -0.9545 0.9545 0.2982 -77.1064 284.3651)" class="st2" cx="154.82" cy="194.62" rx="39.31" ry="35.77"/>
			</g>
			
				<ellipse transform="matrix(0.2982 -0.9545 0.9545 0.2982 -77.1064 284.3651)" class="st3" cx="154.82" cy="194.62" rx="28.94" ry="26.34"/>
			<g>
				
					<ellipse transform="matrix(0.1447 -0.9895 0.9895 0.1447 -47.7317 320.2904)" class="st2" cx="161.4" cy="187.75" rx="14.75" ry="13.62"/>
			</g>
		</g>
		<path class="st4" d="M357.6,264.97c-12.09-3.77-23.32-10.83-34.05-17.5c-11.78-7.32-21.19-18.59-32.95-25.39
			c-8.4-4.87-21.87-5.68-31.47-6.57c0-0.02,0-0.03,0-0.05c-0.07,0.01-0.15,0.02-0.22,0.03c-0.07-0.01-0.15-0.01-0.22-0.02
			c0,0.02,0,0.03,0,0.05c-9.54,1.39-22.95,2.89-31.1,8.19c-11.4,7.4-20.24,19.14-31.64,27.06c-10.38,7.21-21.24,14.83-33.13,19.23
			c-9.98,3.68-24.75,7.19-21.82,21.24c2.88,13.81,19.3,16.75,29.64,22.72c12.03,6.94,21.65,12.15,35.45,14.94
			c18.2,3.69,37.02,5.08,55.56,5.45c0,0.01,0,0.02,0,0.02c0.07-0.01,0.15-0.01,0.22-0.02c0.07,0,0.15,0,0.22,0.01
			c0-0.01,0-0.02,0-0.02c18.5-1.33,37.23-3.69,55.22-8.3c13.64-3.5,22.98-9.2,34.65-16.75c10.03-6.49,26.28-10.28,28.47-24.21
			C382.68,270.88,367.75,268.13,357.6,264.97z M261.1,302.78c0.07,2.46,0.12,4.92,0.18,7.38
			C261.22,307.7,261.15,305.24,261.1,302.78z"/>
		<path class="st5" d="M-37.85,483.5c-0.53-2.56,13.26-83.62,19.16-93.27c5.9-9.65,17.69-9.64,17.69-9.64l25.55,1.94l3.89,102.3
			L-37.85,483.5z"/>
		<path class="st5" d="M561.08,483.76c0.53-2.56-13.19-83.64-19.08-93.29c-5.89-9.65-17.68-9.66-17.68-9.66l-25.55,1.92l-3.98,102.3
			L561.08,483.76z"/>
		<path class="st3" d="M376.65,272.6c-30.63,19.23-67.37-11.58-114.09-11.58c-43.62,0-85.98,30.8-115.99,13.75
			c-3.57,3.82-6.85,6.84-5.57,14.57c2.89,17.52,19.32,21.24,29.64,28.8c12.04,8.81,21.66,15.41,35.46,18.96
			c18.2,4.67,37,6.43,55.56,6.9c0,0.02,0,0.02,0,0.02c0.08,0,0.15,0,0.21-0.02c0.08,0,0.15,0.02,0.23,0.02c0-0.02,0-0.02,0-0.02
			c18.5-1.69,37.23-4.67,55.22-10.55c13.63-4.43,22.99-11.65,34.64-21.21c10.04-8.25,26.3-13.04,28.48-30.71
			C381.12,276.13,378.5,275.79,376.65,272.6z"/>
		<path class="st6" d="M318.76,290.77c22.5-4.11,42.71-10.43,59.43-18.44c-4.26-5.67-13.69-7.61-20.8-9.76
			c-12.09-3.64-23.31-10.47-34.05-16.91c-11.77-7.07-21.18-17.97-32.93-24.56c-8.4-4.7-21.87-5.49-31.47-6.35v-0.06
			c-0.08,0.02-0.15,0.02-0.23,0.04c-0.06-0.02-0.15-0.02-0.21-0.02c0,0.02,0,0.02,0,0.04c-9.55,1.34-22.95,2.8-31.11,7.91
			c-11.39,7.17-20.23,18.51-31.64,26.17c-10.38,6.98-21.24,14.35-33.12,18.59c-5.65,2.02-12.82,3.98-17.46,7.75
			c17.77,7.7,36.96,15.13,60.36,18.67c3.13,0.47,6.28-0.12,9.36,0.65c10.17,2.53,27.01-10.49,45.62-10.49
			c19.75,0,38.73,12.5,49.21,9.3C312.71,292.38,315.67,291.33,318.76,290.77z"/>
		<path class="st7" d="M392.75,173.88c0,0-45.18-10.42-53.82,34.67c0.18-2.08,37.39-26.33,57.93-1.31"/>
		<path class="st0" d="M328.73,65.96c0,13.78-31.42,31.77-68.45,31.77s-65.66-17.98-65.66-31.77s31.42-23.82,68.45-23.82
			S328.73,52.17,328.73,65.96z"/>
		<path class="st8" d="M93.56,358.79c0,0,182.32,106.84,330.51-17.32C424.07,341.46,281.8,539.77,93.56,358.79z"/>
		<path class="st9" d="M97.48,685.88c6.64,5-64.35-113.45-31.71-182.62"/>
		<path class="st9" d="M423.68,685.88c-6.64,5,64.35-113.45,31.71-182.62"/>
		<g class="st10">
			<path class="st2" d="M72.42,381.66c-9.7,7.48-18.9,15.13-27.67,23.19c-4.37,4.03-8.63,8.15-12.73,12.39
				c-4.11,4.23-8.08,8.59-11.82,13.11c-0.96,1.11-1.91,2.23-2.8,3.39c-0.91,1.15-1.85,2.28-2.72,3.46l-2.66,3.5
				c-0.89,1.17-1.68,2.4-2.56,3.58l-1.29,1.79l-1.21,1.83c-0.79,1.23-1.65,2.43-2.43,3.67c-1.53,2.5-3.14,4.97-4.56,7.54
				c-6,10.17-10.67,21.08-15.01,32.57c0.02-1.53,0.13-3.06,0.19-4.6l0.15-2.31c0.08-0.77,0.19-1.52,0.29-2.29
				c0.19-1.53,0.43-3.06,0.65-4.59c0.29-1.51,0.63-3.02,0.95-4.54l0.51-2.27l0.62-2.24c0.42-1.49,0.85-2.99,1.31-4.47
				c1.04-2.92,2.01-5.9,3.29-8.74c2.38-5.77,5.35-11.28,8.63-16.58c0.83-1.32,1.65-2.65,2.54-3.93l2.68-3.83
				c0.91-1.27,1.89-2.47,2.84-3.71c0.94-1.24,1.93-2.45,2.93-3.64c1.99-2.39,4.1-4.68,6.22-6.96c2.19-2.2,4.36-4.43,6.66-6.51
				c4.57-4.19,9.37-8.11,14.4-11.7c5.03-3.59,10.26-6.87,15.69-9.78c2.72-1.45,5.47-2.82,8.29-4.05
				C66.61,383.69,69.48,382.56,72.42,381.66z"/>
		</g>
		<g class="st10">
			<path class="st2" d="M452.71,381.66c2.94,0.9,5.81,2.03,8.62,3.27c2.82,1.23,5.57,2.6,8.29,4.05c5.43,2.91,10.66,6.19,15.69,9.78
				c5.03,3.59,9.83,7.51,14.4,11.7c2.3,2.08,4.47,4.3,6.66,6.51c2.11,2.28,4.22,4.57,6.22,6.96c1.01,1.19,1.99,2.39,2.93,3.64
				c0.94,1.24,1.93,2.44,2.84,3.71l2.68,3.83c0.89,1.28,1.71,2.61,2.54,3.93c3.28,5.3,6.26,10.81,8.63,16.58
				c1.28,2.84,2.26,5.81,3.29,8.74c0.46,1.49,0.89,2.98,1.31,4.47l0.62,2.24l0.51,2.27c0.32,1.52,0.65,3.03,0.95,4.54
				c0.22,1.54,0.45,3.06,0.65,4.59c0.1,0.76,0.21,1.52,0.29,2.29l0.15,2.31c0.07,1.54,0.17,3.07,0.19,4.6
				c-4.34-11.49-9-22.4-15.01-32.57c-1.43-2.57-3.03-5.04-4.56-7.54c-0.78-1.24-1.64-2.43-2.43-3.67l-1.21-1.83l-1.29-1.79
				c-0.88-1.18-1.67-2.41-2.56-3.58l-2.66-3.5c-0.88-1.17-1.82-2.3-2.72-3.46c-0.9-1.16-1.85-2.28-2.81-3.39
				c-3.74-4.52-7.71-8.88-11.82-13.11c-4.1-4.24-8.36-8.36-12.73-12.39C471.61,396.79,462.41,389.14,452.71,381.66z"/>
		</g>
		<path class="st8" d="M-40.66,570.45c0,0,51.05,40.45,56.3,28.65c-2.58-17.28,0.55-34.79,7.4-54.39
			c11.46-32.79,30.8-39.87,30.8-39.87s-23.31,88.85,34.19,171.05C85.07,671.64-14.03,667.9-40.66,570.45z"/>
		<path class="st8" d="M566.38,569.56c0,0-50.5,41.16-55.91,29.43c2.34-17.32-1.02-34.78-8.13-54.28
			C490.43,512.09,471,505.28,471,505.28s24.52,88.52-31.86,171.51C442.03,672.51,541.07,667.38,566.38,569.56z"/>
		<g class="st13">
			<path class="st12" d="M34.39,374.91c-4.6,4.81-9.3,9.44-14,14.06c-4.69,4.62-9.38,9.23-14,13.89c-2.32,2.32-4.6,4.67-6.87,7.03
				c-2.3,2.33-4.48,4.77-6.67,7.19c-2.16,2.45-4.31,4.92-6.28,7.52c-2,2.58-3.85,5.28-5.41,8.22c0.73-3.26,2.18-6.35,3.77-9.3
				c1.64-2.93,3.51-5.72,5.5-8.41c3.99-5.38,8.44-10.36,13.13-15.07c4.69-4.72,9.64-9.16,14.76-13.38
				C23.44,382.45,28.74,378.44,34.39,374.91z"/>
		</g>
		<g class="st13">
			<path class="st12" d="M492.64,374.91c5.65,3.53,10.95,7.54,16.08,11.75c5.12,4.22,10.07,8.66,14.76,13.38
				c4.69,4.71,9.14,9.7,13.13,15.07c2,2.68,3.86,5.47,5.5,8.41c1.59,2.95,3.04,6.03,3.77,9.3c-1.56-2.94-3.41-5.64-5.41-8.22
				c-1.97-2.6-4.13-5.06-6.28-7.52c-2.2-2.42-4.37-4.86-6.67-7.19c-2.27-2.36-4.55-4.71-6.87-7.03c-4.62-4.65-9.31-9.26-14-13.89
				C501.94,384.35,497.24,379.72,492.64,374.91z"/>
		</g>
	</g>
</g>
</svg>
